<?xml version="1.0" encoding="utf-8"?>
<!-- Generator: Adobe Illustrator 27.5.0, SVG Export Plug-In . SVG Version: 6.00 Build 0)  -->
<svg version="1.1" xmlns="http://www.w3.org/2000/svg" xmlns:xlink="http://www.w3.org/1999/xlink" x="0px" y="0px"
	 viewBox="0 0 2500 2500" style="enable-background:new 0 0 2500 2500;" xml:space="preserve">
<g id="Background">
	<rect style="fill:#FFFFFF;" width="2500" height="2500"/>
</g>
<g id="Illustration">
	<g id="Carb_cycling_1_">
		<circle style="fill:#F2E6DC;" cx="1250" cy="1249.529" r="914.529"/>
		<g>
			<g>
				<path style="fill:#363E44;" d="M1279.404,628.34c4.018-6.213,16.78-28.781,9.214-37.213c-5.482-6.11-19.624-2.632-29.316-6.581
					c-9.953-4.054-17.295-20.11-30.513-21.658c-11.958-1.4-19.08,9.178-31.949,11.607c-17.11,3.23-31.651-7.928-44.153-0.599
					c-10.303,6.041-11.626,18.118-19.743,27.88c-9.453,11.367-21.637,12.334-26.205,24.29c-4.924,12.89,3.829,24.41,0.359,36.735
					c-3.618,12.851-9.691,15.13-9.214,23.931c0.555,10.232,11.948,11.552,12.803,22.735c0.641,8.38-7.777,16.393-5.265,26.444
					c3.164,12.655,19.91,27.051,46.906,28.12C1190.679,765.549,1220.253,719.812,1279.404,628.34z"/>
				<g>
					<path style="fill:#363E44;" d="M1185.234,555.708c-1.465,11.204-16.084,15.888-21.622,25.038
						c-5.678,9.383,2.656,32.12-6.22,38.543c-8.744,6.327-27.883-8.6-38.673-5.926c-10.306,2.554-20.845,14.651-32.082,13.182
						c-11.237-1.47-14.184-15.331-23.486-20.45c-9.74-5.359-32.074,4.143-38.897-4.221c-6.926-8.49,6.976-28.318,3.902-38.845
						c-2.998-10.266-12.864-12.391-11.398-23.594c1.465-11.204,12.973-21.632,18.511-30.782c5.678-9.383,2.288-25.974,11.164-32.397
						c8.744-6.327,22.939,2.454,33.729-0.22c10.306-2.554,20.085-24.885,31.322-23.416c11.237,1.47,14.943,25.565,24.246,30.684
						c9.74,5.359,25.451,0.862,32.274,9.225c6.926,8.49-0.353,23.313,2.721,33.841
						C1173.722,536.636,1186.699,544.505,1185.234,555.708z"/>
					<path style="fill:#363E44;" d="M1038.317,640.302c-1.648,0-3.217-0.337-4.678-1.13c-5.8-3.153-6.542-11.474-7.259-19.52
						c-0.514-5.749-1.044-11.694-3.385-14.63c-2.217-2.783-4.872-4.138-7.685-5.575c-4.158-2.123-8.458-4.318-10.214-10.953
						c-1.92-7.259,0.448-15.728,2.537-23.201c0.96-3.43,1.866-6.67,2.318-9.564c0.579-3.684-0.531-8.174-1.605-12.517
						c-1.629-6.591-3.314-13.405,0.164-19.006c3.39-5.46,10.009-6.824,16.409-8.144c4.418-0.91,8.987-1.852,12.097-4.128
						c2.869-2.098,4.806-7.626,6.68-12.971c2.712-7.737,5.518-15.737,12.105-17.481c6.592-1.749,12.985,3.822,19.17,9.208
						c4.272,3.718,8.69,7.563,12.219,7.968c3.811,0.442,8.221-0.92,12.473-2.234c6.202-1.916,12.62-3.902,18.266-0.829
						c5.797,3.15,7.739,9.806,9.617,16.244c1.231,4.221,2.505,8.586,4.825,11.497c2.197,2.757,5.625,4.764,9.254,6.889
						c5.615,3.288,11.419,6.688,13.183,13.349l0,0c1.765,6.67-1.582,12.631-4.818,18.396c-2.072,3.694-4.031,7.183-4.575,10.657
						c-0.581,3.709,1.896,9.137,4.293,14.387c3.357,7.35,6.828,14.95,3.346,20.558c-3.404,5.482-11.653,5.801-19.633,6.109
						c-5.877,0.226-11.955,0.461-15.071,2.742c-2.815,2.058-5.26,5.404-7.849,8.945c-4.136,5.659-8.412,11.51-15.049,13.266
						c-6.577,1.74-11.866-1.432-16.99-4.496c-3.469-2.075-6.747-4.034-10.285-4.44c-3.841-0.445-9.237,2.362-14.455,5.071
						C1048.461,637.501,1043.066,640.302,1038.317,640.302z M1058.288,485.571c-0.465,0-0.919,0.055-1.36,0.172
						c-4.33,1.146-6.742,8.025-9.073,14.678c-2.193,6.256-4.265,12.164-8.236,15.071c-3.884,2.841-8.931,3.881-13.81,4.887
						c-5.742,1.184-11.165,2.302-13.556,6.152c-2.496,4.022-1.104,9.657,0.37,15.624c1.179,4.767,2.397,9.696,1.683,14.257
						c-0.493,3.148-1.433,6.51-2.43,10.068c-2.031,7.27-4.134,14.788-2.52,20.887c1.253,4.732,4.065,6.168,7.956,8.155
						c2.961,1.512,6.318,3.226,9.129,6.753c3.166,3.972,3.755,10.587,4.328,16.985c0.613,6.89,1.25,14.015,4.973,16.039
						c3.615,1.963,9.884-1.293,15.951-4.441c5.806-3.015,11.808-6.13,16.988-5.539c4.48,0.514,8.324,2.814,12.043,5.037
						c4.739,2.834,8.828,5.28,13.601,4.017c5.128-1.357,8.938-6.567,12.62-11.606c2.673-3.657,5.438-7.438,8.802-9.901
						c4.205-3.075,10.967-3.337,17.505-3.589c6.828-0.264,13.889-0.536,16.058-4.029c2.236-3.602-0.736-10.109-3.609-16.404
						c-2.668-5.842-5.427-11.883-4.642-16.9c0.669-4.258,2.916-8.261,5.087-12.131c2.935-5.229,5.709-10.169,4.401-15.112l0,0
						c-1.298-4.904-6.084-7.706-11.15-10.673c-3.818-2.236-7.765-4.547-10.474-7.945c-2.86-3.592-4.257-8.38-5.608-13.01
						c-1.7-5.828-3.305-11.332-7.491-13.605c-4.014-2.185-9.286-0.556-14.86,1.168c-4.689,1.448-9.54,2.943-14.279,2.402
						c-4.889-0.562-9.611-4.672-14.61-9.023C1067.3,489.856,1062.379,485.571,1058.288,485.571z"/>
				</g>
				<path style="fill:#BC8271;" d="M1219.609,965.23L1219.609,965.23c-26.542,0-48.058-21.516-48.058-48.058V794.283
					c0-26.542,21.516-48.058,48.058-48.058h0c26.542,0,48.058,21.516,48.058,48.058v122.889
					C1267.667,943.714,1246.151,965.23,1219.609,965.23z"/>
				<path style="fill:#BC8271;" d="M1227.262,623.945c4.368-0.424,46.262-3.853,71.498,24.794
					c18.778,21.315,21.032,48.676,17.875,95.138c-3.718,54.715-13.446,80.242-29.196,91.042
					c-24.885,17.064-99.595-14.439-127.637-62.213c-20.241-34.484-17.934-78.899,3.46-113.012
					C1184.595,625.675,1224.474,624.216,1227.262,623.945z"/>
				<path style="fill:#363E44;" d="M1227.114,647.604c11.52,8.299,16.152,25.92,10.051,34.462
					c-7.585,10.619-27.741,1.579-33.744,11.487c-6.143,10.137,12.078,24.36,5.744,38.769c-4.314,9.813-15.174,8.698-19.384,18.667
					c-3.972,9.403,1.351,20.674,6.461,28.718c-26.64-16.478-31.477-26.622-30.153-33.025c1.938-9.373,14.672-10.593,17.23-21.18
					c3.578-14.799-20.395-25.7-16.513-39.128c3.165-10.946,23.04-11.674,23.692-21.537c0.303-4.599-3.744-8.551-6.462-10.77
					C1196.334,641.007,1215.083,638.936,1227.114,647.604z"/>
				<path style="fill:#EFBC73;" d="M1306.805,659.271c-14.718-12.205-49.79-19.208-83.281-9.513
					c-54.563,15.795-66.05,71.555-68.922,84.956c-4.374,5.008-15.803,0.735-20.177,5.743
					c-8.54-65.572,19.143-106.359,63.345-125.935c40.561-17.963,80.567-2.623,89.135,0.884
					C1299.147,632.767,1302.884,648.372,1306.805,659.271z"/>
				<path style="fill:#363E44;" d="M1266.945,843.125c-25.108,0-58.813-15.351-83.566-38.371c-0.891-0.83-0.943-2.224-0.114-3.115
					c0.833-0.892,2.227-0.939,3.114-0.113c25.218,23.452,59.837,38.706,84.104,37.077c1.224-0.092,2.266,0.838,2.346,2.052
					c0.08,1.214-0.839,2.264-2.053,2.345C1269.523,843.085,1268.244,843.125,1266.945,843.125z"/>
				<g>
					<path style="fill:#FFFFFF;" d="M1352.542,695.186c0,0-4.667,15.53-16.872,27.501c-2.44,2.393-14.41-24.305-9.327-25.641
						C1340.181,693.408,1352.542,695.186,1352.542,695.186z"/>
					<path style="fill:#363E44;" d="M1285.918,737.701c0,0,23.109,3.325,41.507-8.416c3.089-1.971,5.843-4.247,8.296-6.66
						c0.208-1.391,0.352-2.804,0.352-4.253c0-8.503-3.74-16.116-9.639-21.344c-5.112,1.335-10.427,3.401-15.4,6.574
						C1292.638,715.343,1285.918,737.701,1285.918,737.701z"/>
				</g>
				<g>
					<path style="fill:#FFFFFF;" d="M1231.934,717.766c17.632,6.966,28.537,22.454,28.537,22.454s-11.497,5.76-26.078,6.553
						C1229.328,747.049,1229.991,716.998,1231.934,717.766z"/>
					<path style="fill:#363E44;" d="M1231.929,717.769c-1.942-0.767-3.964-1.435-6.064-1.964c-21.165-5.323-42.04,5.133-42.04,5.133
						s13.442,19.091,34.607,24.414c5.467,1.377,10.913,1.693,15.986,1.414C1238.88,737.527,1238.094,726.365,1231.929,717.769z"/>
				</g>
				<g>
					<path style="fill:#BC8271;" d="M1164.294,717.814c-6.464-2.533-13.45-2.676-19.689,0.273
						c-13.446,6.357-18.249,24.407-10.728,40.315c6.166,13.04,18.694,20.568,30.417,19.363V717.814z"/>
					<path style="fill:#363E44;" d="M1147.5,757.777c-0.695,0-1.38-0.328-1.808-0.941c-3.368-4.817-4.612-11.465-3.172-16.935
						c1.164-4.412,3.871-7.743,7.833-9.635c1.095-0.527,2.412-0.06,2.938,1.038c0.525,1.099,0.06,2.415-1.039,2.939
						c-3.482,1.662-4.896,4.605-5.468,6.781c-1.126,4.271-0.136,9.486,2.52,13.288c0.697,0.997,0.454,2.372-0.542,3.069
						C1148.376,757.648,1147.935,757.777,1147.5,757.777z"/>
				</g>
				<path style="fill:#363E44;" d="M1289.649,768.744c-0.42,0-0.844-0.119-1.218-0.369c-1.014-0.675-1.289-2.042-0.616-3.056
					c1.392-2.091,1.943-3.983,1.636-5.628c-0.295-1.589-1.304-2.571-3.213-4.308c-1.42-1.291-3.187-2.9-4.838-5.262
					c-2.105-3.013-3.531-6.553-4.237-10.521c-0.213-1.198,0.585-2.342,1.782-2.555c1.212-0.216,2.344,0.586,2.557,1.783
					c0.594,3.333,1.776,6.284,3.512,8.77c1.369,1.959,2.804,3.265,4.19,4.527c2.057,1.873,4.001,3.642,4.582,6.762
					c0.523,2.81-0.25,5.797-2.298,8.876C1291.06,768.398,1290.361,768.744,1289.649,768.744z"/>
				<path style="fill:#363E44;" d="M1274.044,795.386c-1.836,0-3.856-0.263-5.976-0.969c-7.255-2.419-10.523-8.364-11.352-10.128
					c-0.516-1.102-0.043-2.415,1.059-2.932c1.102-0.519,2.417-0.042,2.931,1.058c0.639,1.363,3.163,5.957,8.757,7.82
					c5.008,1.671,9.323,0.117,10.945-0.63c1.104-0.512,2.412-0.026,2.922,1.079c0.51,1.106,0.026,2.415-1.08,2.924
					C1280.836,794.259,1277.84,795.386,1274.044,795.386z"/>
			</g>
			<g>
				<g>
					<path style="fill:#BC8271;" d="M819.263,1072.605c0,0,139.95-175.199,395.586-181.639
						c246.972-6.223,539.951,92.635,539.951,92.635l-85.435,177.331l-247.032-12.943c0,0-65.887,140.489-47.383,195.998
						c21.538,64.615,77.538,170.152,77.538,170.152l-478.149,2.154c0,0,86.153-150.767,88.307-178.767
						c2.154-27.999-55.999-183.075-55.999-183.075l-127.793,92.136L819.263,1072.605z"/>
					<path style="fill:#363E44;" d="M1211.259,1334.922c-0.013,0-0.026,0-0.039,0c-1.216-0.021-2.187-1.024-2.165-2.241l0.019-1.06
						l2.135-123.861c0.021-1.217,0.973-2.111,2.242-2.166c1.216,0.022,2.187,1.024,2.165,2.241l-2.154,124.921
						C1213.441,1333.96,1212.459,1334.922,1211.259,1334.922z"/>
					<path style="fill:#363E44;" d="M1280.184,1479.728c-0.127,0-0.258-0.011-0.39-0.034c-1.199-0.214-1.995-1.358-1.782-2.557
						c5.305-29.734,8.918-60.084,10.739-90.207c2.847-47.081,1.401-94.775-4.295-141.752c-0.146-1.208,0.714-2.307,1.924-2.453
						c1.222-0.147,2.309,0.714,2.453,1.922c5.727,47.243,7.179,95.204,4.317,142.551c-1.831,30.292-5.464,60.812-10.799,90.715
						C1282.162,1478.979,1281.232,1479.728,1280.184,1479.728z"/>
					<path style="fill:#363E44;" d="M1135.873,1466.804c-1.074,0-2.012-0.783-2.178-1.876
						c-5.993-39.898-9.624-80.567-10.793-120.878c-0.975-33.677-0.247-67.811,2.161-101.45c0.086-1.216,1.164-2.111,2.354-2.041
						c1.214,0.087,2.128,1.142,2.04,2.355c-2.397,33.493-3.12,67.477-2.148,101.009c1.162,40.134,4.777,80.626,10.745,120.35
						c0.181,1.203-0.65,2.325-1.853,2.506C1136.092,1466.797,1135.98,1466.804,1135.873,1466.804z"/>
					<path style="fill:#363E44;" d="M1210.6,1367.81c-0.269,0-0.54-0.05-0.805-0.153c-4.091-1.604-6.729-5.76-6.415-10.107
						c0.323-4.563,3.719-8.342,8.253-9.187c1.214-0.23,2.348,0.567,2.572,1.762c0.222,1.197-0.566,2.347-1.763,2.569
						c-2.565,0.478-4.485,2.604-4.668,5.169c-0.174,2.444,1.317,4.783,3.63,5.689c1.132,0.444,1.692,1.723,1.246,2.856
						C1212.311,1367.278,1211.48,1367.81,1210.6,1367.81z"/>
				</g>
				<g>
					<g>
						<g>
							<path style="fill:#363E44;" d="M764.726,584.137c-0.542,0-1.087-0.199-1.513-0.6c-0.884-0.835-0.925-2.231-0.09-3.115
								l56.676-60.077l-32.803-29.624l-54.008,62.485c-0.8,0.923-2.189,1.021-3.11,0.226c-0.919-0.795-1.022-2.188-0.226-3.108
								l56.956-65.894l39.488,35.662l-59.766,63.353C765.895,583.904,765.312,584.137,764.726,584.137z"/>
							<path style="fill:#363E44;" d="M804.913,504.649c-0.527,0-1.055-0.187-1.476-0.568c-0.904-0.816-0.975-2.209-0.159-3.113
								l107.628-119.18c0.816-0.903,2.21-0.973,3.112-0.158c0.904,0.816,0.975,2.209,0.159,3.113l-107.628,119.18
								C806.114,504.404,805.514,504.649,804.913,504.649z"/>
							<path style="fill:#363E44;" d="M754.859,573.842c-0.527,0-1.055-0.187-1.476-0.568c-0.904-0.816-0.975-2.209-0.159-3.113
								l55.675-61.65c0.818-0.904,2.208-0.974,3.112-0.158c0.904,0.816,0.975,2.209,0.159,3.113l-55.675,61.65
								C756.06,573.597,755.46,573.842,754.859,573.842z"/>
							<path style="fill:#363E44;" d="M742.532,562.71c-0.527,0-1.055-0.187-1.476-0.568c-0.904-0.816-0.975-2.209-0.159-3.113
								l55.675-61.65c0.816-0.903,2.21-0.973,3.112-0.158c0.904,0.816,0.975,2.209,0.159,3.113l-55.675,61.65
								C743.733,562.464,743.133,562.71,742.532,562.71z"/>
						</g>
						<g>
							<g>
								
									<rect x="519.919" y="558.683" transform="matrix(0.9453 0.3263 -0.3263 0.9453 218.4138 -144.5257)" style="fill:#FFFFFF;" width="40.136" height="40.136"/>
								
									<rect x="635.134" y="605.609" transform="matrix(0.5 0.866 -0.866 0.5 869.4537 -254.5828)" style="fill:#FFFFFF;" width="40.136" height="40.136"/>
								
									<rect x="719.296" y="593.586" transform="matrix(0.5 0.866 -0.866 0.5 901.1223 -333.4805)" style="fill:#FFFFFF;" width="40.136" height="40.136"/>
								
									<rect x="779.411" y="581.563" transform="matrix(0.9642 0.2651 -0.2651 0.9642 188.0859 -190.4075)" style="fill:#FFFFFF;" width="40.136" height="40.136"/>
								
									<ellipse transform="matrix(0.3727 -0.928 0.928 0.3727 -196.5989 930.2285)" style="fill:#D87355;" cx="589.728" cy="610.525" rx="19.965" ry="32.324"/>
								
									<ellipse transform="matrix(0.8352 -0.5499 0.5499 0.8352 -212.1547 477.4399)" style="fill:#D87355;" cx="690.635" cy="592.746" rx="32.324" ry="19.965"/>
								
									<ellipse transform="matrix(0.9875 -0.1574 0.1574 0.9875 -87.425 129.6409)" style="fill:#D87355;" cx="774.796" cy="616.792" rx="19.965" ry="32.324"/>
								<circle style="fill:#8B865C;" cx="526.656" cy="614.188" r="22.719"/>
								
									<ellipse transform="matrix(0.9147 -0.4042 0.4042 0.9147 -184.6387 281.6585)" style="fill:#8B865C;" cx="574.748" cy="578.119" rx="22.719" ry="22.719"/>
								<circle style="fill:#8B865C;" cx="694.979" cy="614.188" r="22.719"/>
								
									<ellipse transform="matrix(0.9145 -0.4045 0.4045 0.9145 -174.1772 355.8569)" style="fill:#8B865C;" cx="755.094" cy="590.142" rx="22.719" ry="22.719"/>
								<path style="fill:#8B865C;" d="M779.141,639.11c-13.743,0-24.923-11.18-24.923-24.922c0-13.743,11.18-24.923,24.923-24.923
									c13.743,0,24.923,11.18,24.923,24.923C804.063,627.931,792.883,639.11,779.141,639.11z M779.141,593.673
									c-11.313,0-20.515,9.203-20.515,20.515c0,11.311,9.202,20.514,20.515,20.514c11.313,0,20.515-9.203,20.515-20.514
									C799.656,602.877,790.454,593.673,779.141,593.673z"/>
								<path style="fill:#8B865C;" d="M562.726,627.088c-13.743,0-24.923-11.18-24.923-24.923c0-13.743,11.18-24.923,24.923-24.923
									c13.743,0,24.923,11.18,24.923,24.923C587.648,615.908,576.469,627.088,562.726,627.088z M562.726,581.65
									c-11.313,0-20.515,9.203-20.515,20.515s9.202,20.515,20.515,20.515c11.313,0,20.515-9.203,20.515-20.515
									S574.039,581.65,562.726,581.65z"/>
								
									<rect x="644.154" y="558.025" transform="matrix(-0.9997 0.0233 -0.0233 -0.9997 1341.7498 1140.533)" style="fill:#FFFFFF;" width="40.136" height="40.136"/>
								
									<ellipse transform="matrix(0.0262 -0.9997 0.9997 0.0262 25.2216 1157.1538)" style="fill:#D87355;" cx="606.529" cy="565.632" rx="19.965" ry="32.324"/>
								<path style="fill:#8B865C;" d="M729.591,553.156c5.162,11.436,18.617,16.523,30.054,11.361
									c11.436-5.162,16.523-18.617,11.361-30.054c-5.162-11.436-18.617-16.523-30.054-11.361
									C729.516,528.265,724.43,541.72,729.591,553.156z"/>
								<path style="fill:#8B865C;" d="M771.161,585.716c-2.976,0.001-5.957-0.539-8.823-1.623
									c-6.228-2.354-11.165-6.992-13.902-13.061c-2.74-6.067-2.953-12.838-0.598-19.065c2.354-6.227,6.992-11.165,13.061-13.903
									c12.521-5.649,27.314-0.065,32.967,12.462c2.739,6.068,2.953,12.839,0.598,19.066c-2.354,6.227-6.992,11.165-13.061,13.903
									C778.129,584.974,774.647,585.716,771.161,585.716z M771.12,540.266c-2.819,0-5.679,0.583-8.41,1.816
									c-4.995,2.254-8.813,6.318-10.749,11.445c-1.937,5.125-1.763,10.699,0.491,15.693v0.001
									c2.255,4.995,6.318,8.813,11.445,10.749c5.124,1.938,10.698,1.764,15.695-0.492c4.995-2.254,8.813-6.318,10.749-11.445
									c1.937-5.125,1.763-10.699-0.491-15.693C786.427,544.762,778.94,540.266,771.12,540.266z"/>
								
									<ellipse transform="matrix(0.9004 -0.4351 0.4351 0.9004 -166.0033 365.9616)" style="fill:#D87355;" cx="716.194" cy="545.503" rx="32.324" ry="19.965"/>
								
									<ellipse transform="matrix(0.3448 -0.9387 0.9387 0.3448 -71.8205 977.5634)" style="fill:#8B865C;" cx="664.376" cy="540.231" rx="22.719" ry="22.719"/>
								
									<ellipse transform="matrix(0.9075 -0.42 0.42 0.9075 -189.7134 320.0519)" style="fill:#8B865C;" cx="631.857" cy="590.792" rx="22.719" ry="22.719"/>
								<path style="fill:#8B865C;" d="M634.78,588.987c-10.123,0-19.663-6.213-23.391-16.244l0,0
									c-4.784-12.883,1.803-27.258,14.683-32.043c6.243-2.319,13.016-2.067,19.063,0.706c6.051,2.773,10.661,7.736,12.979,13.977
									c2.318,6.24,2.068,13.009-0.706,19.062c-2.772,6.052-7.737,10.661-13.975,12.98
									C640.582,588.485,637.655,588.987,634.78,588.987z M615.521,571.209c3.94,10.604,15.785,16.026,26.375,12.085
									c5.137-1.908,9.224-5.703,11.507-10.685c2.281-4.982,2.488-10.554,0.579-15.691c-1.907-5.137-5.703-9.222-10.683-11.506
									c-4.98-2.281-10.554-2.489-15.691-0.58C617.004,548.772,611.583,560.604,615.521,571.209L615.521,571.209z"/>
							</g>
							<path style="fill:#363E44;" d="M601.542,790.454h115.802c71.852-24.076,123.72-91.726,124.225-171.565H477.316
								C477.822,698.728,529.69,766.378,601.542,790.454z"/>
						</g>
					</g>
					<g>
						<path style="fill:#BC8271;" d="M886.376,1242.21c96.584-62.31-26.931-328.247-62.233-408.141
							c-1.192-12.282-6.299-57.515-21.431-71.228c-20.171-18.28-47.275-28.995-47.275-28.995s-68.16-46.74-80.053-37.82
							c-12.607,9.455,28.365,46.645,28.365,46.645s-61.142-51.057-75.01-40.972c-14.437,10.499,40.972,57.36,40.972,57.36
							s-75.01-45.384-86.986-32.147c-11.976,13.237,51.057,49.166,51.057,49.166s-78.784-25.312-86.986-9.455
							c-9.455,18.28,82.078,39.271,92.659,47.275c3.769,7.162,19.068,39.487,28.365,71.228
							c27.891,95.223,64.22,256.736,72.837,290.192C763.516,1233.649,834.373,1275.759,886.376,1242.21z"/>
						<path style="fill:#363E44;" d="M920.626,1173.191c-0.03,0-0.058-0.001-0.088-0.002c-1.216-0.047-2.163-1.072-2.116-2.288
							c1.739-44.311-8.826-105.938-28.26-164.852c-0.383-1.157,0.245-2.403,1.401-2.784c1.164-0.384,2.402,0.247,2.783,1.402
							c28.241,85.604,29.326,144.89,28.48,166.406C922.78,1172.26,921.803,1173.191,920.626,1173.191z"/>
					</g>
				</g>
				<g>
					<path style="fill:#FFFFFF;" d="M993.723,1122.143c-1.049,21.513,48.955,171.034,57.435,169.434
						c76.102-14.359,241.946-12.205,324.509,3.829c6.645,1.29,50.434-143.129,49.538-163.93
						c-3.59-83.281-115.588-156.511-127.793-166.562c-8.229-6.777-157.69-4.62-161.537-2.154
						C1117.209,974.726,997.552,1043.648,993.723,1122.143z"/>
					<path style="fill:#FFFFFF;" d="M1292.386,976.664c-0.213,0-0.432-0.032-0.648-0.099c-1.164-0.357-1.816-1.59-1.459-2.754
						l25.547-83.053c0.359-1.161,1.59-1.818,2.755-1.458c1.164,0.357,1.816,1.59,1.459,2.753l-25.547,83.054
						C1294.2,976.055,1293.328,976.664,1292.386,976.664z"/>
					<path style="fill:#FFFFFF;" d="M1267.98,977.887c-0.174,0-0.351-0.02-0.525-0.063c-1.184-0.288-1.907-1.482-1.618-2.664
						l20.879-85.355c0.291-1.182,1.493-1.909,2.664-1.616c1.184,0.288,1.907,1.482,1.618,2.664l-20.879,85.355
						C1269.871,977.213,1268.972,977.887,1267.98,977.887z"/>
					<path style="fill:#FFFFFF;" d="M1140.878,978.268c-0.96,0-1.842-0.634-2.118-1.603l-21.538-75.932
						c-0.331-1.171,0.347-2.39,1.519-2.721c1.162-0.329,2.387,0.346,2.72,1.518L1143,975.462c0.331,1.171-0.346,2.39-1.519,2.721
						C1141.281,978.24,1141.078,978.268,1140.878,978.268z"/>
					<path style="fill:#FFFFFF;" d="M1165.289,979.492c-0.994,0-1.896-0.677-2.139-1.686l-20.102-83.282
						c-0.286-1.184,0.441-2.374,1.625-2.66c1.171-0.286,2.374,0.441,2.658,1.625l20.102,83.282c0.286,1.184-0.441,2.374-1.625,2.66
						C1165.635,979.473,1165.461,979.492,1165.289,979.492z"/>
				</g>
				<g>
					<path style="fill:#BC8271;" d="M1619.477,1051.454c-3.175,51.682-5.301,169.64-1.767,259.76
						c3.711,94.646,22.972,233.843,42.41,230.898c11.072-1.677,12.37-21.205,12.37-73.628c2.65,2.65,11.78,8.835,21.794,5.595
						c14.819-4.795,15.117-17.975,15.609-19.143c0.826,0.972,10.013,11.192,20.477,9.662c11.787-1.723,18.4-9.662,20.812-18.694
						c2.124,2.348,10.84,10.21,20.853,8.443c10.3-1.817,19.732-11.192,19.145-22.089c-1.08-19.991-5.43-79.339-4.026-108.479
						c2.763-57.344,60.515-300.772-18.318-334.701C1700.603,959.714,1657.522,981.013,1619.477,1051.454z"/>
					<path style="fill:#363E44;" d="M1616.194,1159.141c-0.009,0-0.019,0-0.028,0c-1.218-0.016-2.191-1.016-2.176-2.233
						c0.544-41.97,1.743-80.456,3.288-105.59c0.073-1.214,1.104-2.151,2.335-2.064c1.214,0.074,2.139,1.12,2.064,2.335
						c-1.541,25.065-2.737,63.473-3.28,105.377C1618.383,1158.173,1617.399,1159.141,1616.194,1159.141z"/>
					<path style="fill:#363E44;" d="M1638.926,1444.146c-1.026,0-1.943-0.719-2.156-1.764c-0.243-1.192,0.525-2.356,1.717-2.6
						l15.54-3.168c1.199-0.24,2.356,0.526,2.6,1.719c0.243,1.192-0.525,2.356-1.717,2.6l-15.54,3.168
						C1639.221,1444.132,1639.072,1444.146,1638.926,1444.146z"/>
					<path style="fill:#363E44;" d="M1678.371,1436.165c-1.026,0-1.943-0.719-2.156-1.764c-0.243-1.192,0.525-2.356,1.717-2.599
						l15.542-3.168c1.196-0.244,2.356,0.526,2.6,1.719c0.243,1.192-0.525,2.356-1.717,2.6l-15.542,3.168
						C1678.666,1436.151,1678.517,1436.165,1678.371,1436.165z"/>
					<path style="fill:#363E44;" d="M1718.627,1428.48c-1.026,0-1.945-0.72-2.156-1.764c-0.243-1.192,0.525-2.357,1.719-2.6
						l15.54-3.167c1.181-0.244,2.356,0.526,2.598,1.72c0.243,1.192-0.525,2.356-1.72,2.6l-15.54,3.167
						C1718.921,1428.466,1718.773,1428.48,1718.627,1428.48z"/>
					<path style="fill:#363E44;" d="M1754.99,1420.76c-1.026,0-1.943-0.719-2.156-1.764c-0.243-1.192,0.525-2.356,1.717-2.6
						l15.54-3.168c1.196-0.242,2.356,0.526,2.599,1.719c0.243,1.192-0.525,2.356-1.717,2.6l-15.54,3.168
						C1755.284,1420.746,1755.136,1420.76,1754.99,1420.76z"/>
				</g>
			</g>
			<g>
				<path style="fill:#EFBC73;" d="M986.429,1490.467c117.342,0.724,234.684,1.443,352.026,2.154
					c119.438,0.724,217.436,1.442,336.874,2.153c-15.813,140.777-39.578,454.843-29.101,670.226
					c-98.483-2.154-192.036,1.052-290.519-1.102c-48.193-111.999-101.069-238.359-124.118-369.743
					c-13.271,122.768-27.153,248.076-40.423,370.844c-107.563,0-214.909-0.367-322.472-0.367
					C847.741,1932.02,866.992,1703.696,986.429,1490.467z"/>
				<path style="fill:#FFFFFF;" d="M1610.599,2162.429c-1.188,0-2.169-0.948-2.202-2.146c-3.032-114.03-1.608-213.462,4.92-343.204
					c5.195-103.205,13.896-207.604,25.859-310.294c0.142-1.206,1.218-2.079,2.445-1.934c1.207,0.141,2.075,1.235,1.933,2.444
					c-11.952,102.596-20.644,206.897-25.833,310.006c-6.523,129.621-7.947,228.956-4.915,342.866
					c0.032,1.216-0.927,2.229-2.146,2.261C1610.64,2162.429,1610.62,2162.429,1610.599,2162.429z"/>
				<path style="fill:#FFFFFF;" d="M1587.094,2161.695c-1.188,0-2.169-0.948-2.202-2.146
					c-3.204-120.485-1.993-219.704,4.183-342.469c5.195-103.205,13.896-207.604,25.859-310.294c0.142-1.206,1.242-2.079,2.443-1.934
					c1.209,0.141,2.077,1.235,1.935,2.444c-11.952,102.596-20.644,206.897-25.833,310.006
					c-6.172,122.644-7.381,221.766-4.179,342.131c0.032,1.216-0.927,2.229-2.146,2.261
					C1587.135,2161.695,1587.116,2161.695,1587.094,2161.695z"/>
				<path style="fill:#FFFFFF;" d="M916.438,2161.695c-1.147,0-2.115-0.889-2.197-2.051
					c-7.046-101.064-7.687-257.915,29.285-431.219c16.493-77.318,59.187-172.024,87.437-234.693l2.929-6.501
					c0.501-1.107,1.801-1.604,2.916-1.104c1.108,0.499,1.603,1.805,1.104,2.914l-2.931,6.503
					c-28.174,62.497-70.748,156.945-87.147,233.8c-36.862,172.803-36.223,329.213-29.195,429.995
					c0.084,1.214-0.833,2.266-2.047,2.351C916.542,2161.692,916.49,2161.695,916.438,2161.695z"/>
				<path style="fill:#FFFFFF;" d="M892.934,2163.163c-1.147,0-2.115-0.889-2.197-2.051c-5.664-81.208-9.2-245.408,30.753-432.688
					c16.493-77.318,59.187-172.024,87.437-234.693l2.929-6.501c0.501-1.107,1.799-1.604,2.916-1.104
					c1.108,0.499,1.603,1.805,1.104,2.914l-2.931,6.503c-28.174,62.497-70.748,156.945-87.147,233.8
					c-39.838,186.752-36.311,350.486-30.662,431.463c0.084,1.215-0.833,2.267-2.047,2.352
					C893.037,2163.161,892.985,2163.163,892.934,2163.163z"/>
				<path style="fill:#FFD092;" d="M995.238,1457.502c100.215,14,209.795,24.746,327.632,29.675
					c128.258,5.364,247.408,3.043,355.828-3.828c-0.448,13.88-0.895,27.76-1.342,41.64
					c-101.515,12.289-221.775,19.234-356.501,12.205c-127.036-6.627-239.93-24.27-335.688-45.23
					C988.525,1480.476,991.881,1468.989,995.238,1457.502z"/>
				<g>
					<g>
						<path style="fill:#FFFFFF;" d="M1266.6,1663.601c-1.199,0-2.18-0.96-2.204-2.162l-2.871-152.204
							c-0.022-1.217,0.945-2.222,2.163-2.246c1.117,0.017,2.219,0.947,2.245,2.162l2.871,152.204
							c0.021,1.217-0.945,2.222-2.163,2.246C1266.628,1663.601,1266.613,1663.601,1266.6,1663.601z"/>
						<path style="fill:#FFFFFF;" d="M1263.652,1518.865c-5.281,0-9.577-4.316-9.577-9.622c0-5.306,4.295-9.623,9.577-9.623
							s9.579,4.317,9.579,9.623C1273.231,1514.55,1268.933,1518.865,1263.652,1518.865z M1263.652,1504.028
							c-2.849,0-5.169,2.339-5.169,5.215c0,2.875,2.32,5.214,5.169,5.214c2.851,0,5.171-2.339,5.171-5.214
							C1268.823,1506.368,1266.503,1504.028,1263.652,1504.028z"/>
					</g>
					<path style="fill:#FFFFFF;" d="M1266.601,1674.798L1266.601,1674.798c-3.701,0-6.701-3-6.701-6.701v-8.615
						c0-3.701,3-6.701,6.701-6.701l0,0c3.701,0,6.701,3,6.701,6.701v8.615C1273.301,1671.798,1270.301,1674.798,1266.601,1674.798z"
						/>
				</g>
				<g>
					<g>
						<path style="fill:#FFFFFF;" d="M1310.672,1619.527c-1.188,0-2.169-0.948-2.202-2.146l-2.871-108.13
							c-0.032-1.216,0.928-2.229,2.146-2.261c0.019-0.001,0.039-0.001,0.06-0.001c1.188,0,2.169,0.948,2.202,2.146l2.871,108.13
							c0.032,1.216-0.927,2.229-2.146,2.261C1310.713,1619.527,1310.693,1619.527,1310.672,1619.527z"/>
						<path style="fill:#FFFFFF;" d="M1307.726,1518.865c-5.281,0-9.577-4.316-9.577-9.622c0-5.306,4.295-9.623,9.577-9.623
							s9.579,4.317,9.579,9.623C1317.304,1514.55,1313.007,1518.865,1307.726,1518.865z M1307.726,1504.028
							c-2.849,0-5.169,2.339-5.169,5.215c0,2.875,2.32,5.214,5.169,5.214c2.852,0,5.171-2.339,5.171-5.214
							C1312.897,1506.368,1310.577,1504.028,1307.726,1504.028z"/>
					</g>
					<path style="fill:#FFFFFF;" d="M1310.674,1630.725L1310.674,1630.725c-3.701,0-6.701-3-6.701-6.701v-8.615
						c0-3.701,3-6.701,6.701-6.701l0,0c3.701,0,6.701,3,6.701,6.701v8.615C1317.375,1627.725,1314.375,1630.725,1310.674,1630.725z"
						/>
				</g>
			</g>
		</g>
		<g>
			<path style="fill:#D3BBA3;" d="M386.358,1232.897l134.863,86.346l43.971-153.998l-36.499,13.808
				c-13.848-30.597-28.851-77.121-26.506-134.169c4.717-114.748,76.155-187.563,93.382-204.221
				c-17.099,7.125-135.047,58.62-176.051,190.686c-24.701,79.554-9.397,149.409,3.523,187.672L386.358,1232.897z"/>
			<path style="fill:#8B865C;" d="M510.339,1316.307c-0.415,0-0.829-0.117-1.188-0.347l-134.862-86.346
				c-0.702-0.45-1.091-1.256-1.003-2.084c0.086-0.83,0.633-1.539,1.412-1.833l34.699-13.125
				c-14.494-43.865-26.375-111.301-2.866-187.014c40.114-129.202,154.738-182.663,177.308-192.067
				c0.975-0.41,2.105-0.062,2.69,0.823c0.581,0.885,0.452,2.059-0.31,2.794c-26.42,25.55-88.345,96.449-92.714,202.728
				c-1.846,44.974,6.719,89.132,25.467,131.284l34.56-13.074c0.77-0.296,1.657-0.127,2.27,0.439
				c0.613,0.564,0.857,1.426,0.628,2.226l-43.973,153.997c-0.192,0.67-0.689,1.211-1.341,1.457
				C510.866,1316.26,510.601,1316.307,510.339,1316.307z M380.36,1228.266l128.672,82.384l41.956-146.931l-32.399,12.256
				c-1.085,0.413-2.307-0.092-2.787-1.152c-19.62-43.352-28.605-88.83-26.7-135.168c4.02-97.796,56.028-166.051,85.679-197.26
				c-36.047,17.268-128.965,71.494-164.041,184.468c-23.522,75.755-11.077,143.132,3.506,186.315
				c0.381,1.123-0.198,2.346-1.308,2.766L380.36,1228.266z"/>
		</g>
		<g>
			<path style="fill:#D3BBA3;" d="M2050.472,1635.252l-72.599-134.844l-108.317,108.285l36.925,5.42
				c-2.644,32.01-11.724,77.869-40.194,124.463c-57.267,93.72-150.816,121.385-172.956,127.303
				c17.603,1.991,140.12,13.76,235.766-77.573c57.615-55.017,77.286-120.517,84.268-158.503L2050.472,1635.252z"/>
			<path style="fill:#8B865C;" d="M1715.51,1860.345c-13.805,0.001-24.058-0.899-29.319-1.495c-1.052-0.119-1.872-0.969-1.95-2.026
				c-0.08-1.057,0.605-2.019,1.629-2.293c33.944-9.073,118.62-39.546,171.644-126.323c22.42-36.691,35.773-77.536,39.703-121.435
				l-34.872-5.119c-0.824-0.12-1.509-0.696-1.771-1.487s-0.056-1.662,0.534-2.251l108.316-108.285
				c0.493-0.492,1.181-0.723,1.879-0.622c0.689,0.101,1.289,0.522,1.62,1.135l72.599,134.844c0.394,0.734,0.342,1.627-0.136,2.309
				c-0.48,0.682-1.298,1.039-2.126,0.916l-35.014-5.141c-8.285,43.411-29.711,105.272-84.521,157.61
				C1851.315,1849.829,1762.685,1860.345,1715.51,1860.345z M1698.438,1855.456c38.558,2.26,140.816-0.204,222.245-77.961
				c54.845-52.37,75.745-114.451,83.622-157.308c0.213-1.166,1.293-1.957,2.488-1.782l32.769,4.812l-69.115-128.375l-103.119,103.09
				l32.584,4.783c1.149,0.169,1.971,1.203,1.877,2.362c-3.751,45.372-17.38,87.574-40.512,125.43
				C1812.66,1810.072,1737.874,1843.023,1698.438,1855.456z"/>
		</g>
		<g>
			<g>
				<polygon style="fill:#363E44;" points="785.539,2074.702 795.405,2080.312 789.776,2081.028 790.138,2086.13 783.977,2084.911 
					783.464,2092.126 778.004,2089.674 776.089,2099.356 769.193,2083.358 				"/>
				<path style="fill:#D87355;" d="M610.892,2061.81c42.448,51.75,112.997,64.629,168.261,19.3
					c55.263-45.329,58.021-117.569,15.574-169.319c-36.491-44.488-84.888-49.472-126.733-17.455
					c-7.289,5.578-15.342,19.5-23.098,25.861c-9.028,7.405-25.752,13.44-33.313,20.409
					C573.735,1975.493,575.38,2018.514,610.892,2061.81z"/>
				<path style="fill:#363E44;" d="M650.182,1930.847c-0.854,0-1.668-0.5-2.025-1.337c-5.016-11.696-17.795-20.859-39.064-28.013
					c-1.154-0.387-1.775-1.638-1.388-2.791c0.39-1.151,1.638-1.774,2.791-1.386c22.528,7.576,36.171,17.538,41.711,30.453
					c0.48,1.118-0.039,2.414-1.156,2.893C650.768,1930.789,650.473,1930.847,650.182,1930.847z"/>
			</g>
			<g>
				<path style="fill:#8B865C;" d="M549.447,1631.433c-1.27,16.778-6.026,49.397-27.261,83.378
					c-25.611,40.982-60.523,60.477-75.786,67.879c11.608,18.807,23.217,37.615,34.825,56.422
					c12.597-11.765,36.96-31.179,72.924-40.958c61.83-16.813,113.233,7.012,127.158,14.038c1.527-9.52,10.846-74.591-35.372-128.313
					C609.724,1641.792,562.35,1633.312,549.447,1631.433z"/>
				<path style="fill:#9E9569;" d="M705.655,1817.452c21.097-13.022,27.645-40.681,14.623-61.778
					c-5.013-8.121-12.204-14.061-20.345-17.582c0.551-0.282,1.099-0.569,1.633-0.898c10.712-6.612,14.034-20.654,7.423-31.364
					c-2.271-3.68-5.43-6.465-9.018-8.297c23.836-16.074,30.934-48.241,15.697-72.927c-15.627-25.318-48.817-33.173-74.134-17.547
					c-0.393,0.242-0.77,0.502-1.154,0.752c-8.744-7.549-21.344-9.447-32.088-4.354c-0.457-0.871-0.902-1.745-1.426-2.595
					c-12.421-20.124-38.803-26.368-58.928-13.946c-20.123,12.421-26.367,38.802-13.946,58.926
					c5.023,8.139,12.347,13.962,20.6,17.243c-10.372,12.425-12.202,30.552-3.234,45.082c5.126,8.304,12.893,13.956,21.543,16.614
					c-12.442,11.165-15.529,29.946-6.439,44.672c8.158,13.217,23.634,19.127,37.97,15.781c0.857,3.726,2.295,7.38,4.413,10.812
					c8.911,14.437,26.381,20.318,41.811,15.212C665.052,1825.406,687.711,1828.528,705.655,1817.452z"/>
				<path style="fill:#8B865C;" d="M691.394,1829.398c-11.595,0-23.081-4.294-32.025-12.614
					c-16.469,4.83-34.034-1.851-43.103-16.544c-1.795-2.907-3.185-6.06-4.147-9.395c-15.013,2.609-30.167-4.122-38.235-17.199
					c-8.875-14.378-6.966-32.716,4.272-44.931c-8.023-3.257-14.819-8.969-19.377-16.355c-8.733-14.149-7.993-32.015,1.629-45.349
					c-7.879-3.721-14.408-9.544-18.996-16.975c-13.037-21.126-6.458-48.921,14.664-61.96c10.233-6.314,22.308-8.269,34.017-5.501
					c11.703,2.771,21.626,9.932,27.942,20.166c0.189,0.306,0.368,0.612,0.54,0.922c10.457-4.136,22.353-2.444,31.252,4.461
					c26.283-16.106,60.804-7.898,77.011,18.36c15.258,24.72,9.189,56.523-13.573,73.925c2.768,1.94,5.117,4.42,6.893,7.301
					c3.508,5.68,4.592,12.387,3.056,18.883c-1.371,5.794-4.681,10.803-9.411,14.307c7.242,3.904,13.293,9.601,17.645,16.653
					c13.64,22.097,6.757,51.171-15.34,64.812l0,0C708.451,1827.089,699.892,1829.398,691.394,1829.398z M659.952,1812.09
					c0.568,0,1.126,0.221,1.545,0.633c14.042,13.802,35.547,16.231,52.294,5.89c20.031-12.364,26.268-38.716,13.906-58.745
					c-4.599-7.451-11.29-13.232-19.347-16.717c-0.783-0.339-1.3-1.1-1.326-1.953c-0.028-0.853,0.441-1.645,1.201-2.034
					c0.497-0.254,0.994-0.511,1.476-0.809c4.681-2.888,7.954-7.426,9.221-12.778c1.265-5.35,0.372-10.874-2.516-15.554
					c-1.965-3.184-4.782-5.774-8.145-7.492c-0.695-0.355-1.149-1.05-1.197-1.829c-0.047-0.779,0.321-1.525,0.966-1.96
					c23.053-15.546,29.666-46.269,15.056-69.942c-14.965-24.243-46.86-31.793-71.103-16.829c-0.239,0.148-0.473,0.304-0.708,0.458
					l-0.4,0.265c-0.822,0.535-1.9,0.465-2.643-0.179c-8.225-7.102-19.889-8.685-29.702-4.031c-1.072,0.507-2.344,0.079-2.895-0.965
					l-0.209-0.399c-0.364-0.693-0.725-1.387-1.143-2.064c-5.699-9.232-14.651-15.694-25.209-18.192
					c-10.549-2.495-21.452-0.738-30.686,4.963c-19.056,11.762-24.992,36.836-13.231,55.894c4.595,7.442,11.352,13.097,19.541,16.353
					c0.656,0.261,1.149,0.821,1.323,1.506c0.172,0.684,0.007,1.411-0.445,1.954c-10.072,12.064-11.298,29.148-3.052,42.51
					c4.629,7.499,11.845,13.063,20.317,15.666c0.76,0.234,1.334,0.858,1.504,1.633c0.17,0.776-0.088,1.583-0.68,2.113
					c-11.89,10.669-14.427,28.279-6.036,41.874c7.455,12.077,21.759,18.018,35.593,14.793c0.57-0.133,1.171-0.035,1.668,0.275
					c0.497,0.31,0.85,0.805,0.981,1.375c0.839,3.64,2.232,7.055,4.141,10.151c8.232,13.329,24.374,19.199,39.245,14.277
					C659.487,1812.126,659.72,1812.09,659.952,1812.09z M714.95,1820.488h0.021H714.95z"/>
				<path style="fill:#9E9569;" d="M521.127,1749.272c-0.073,0-0.144-0.002-0.213-0.006c-1.166-0.068-1.849-0.604-2.214-1.043
					c-1.896-2.274,0.099-4.539,5.432-10.593c4.11-4.669,10.323-11.724,16.627-20.999c7.145-10.512,13.097-21.918,17.692-33.906
					c0.435-1.137,1.715-1.708,2.845-1.269c1.138,0.435,1.706,1.71,1.27,2.846c-4.715,12.304-10.827,24.015-18.161,34.806
					c-6.458,9.502-12.781,16.683-16.964,21.434c-0.912,1.034-1.833,2.082-2.636,3.024c5.077-2.469,14.221-8.326,22.773-16.453
					c7.769-7.386,14.352-16.051,19.564-25.757c0.577-1.071,1.909-1.477,2.983-0.899c1.074,0.576,1.476,1.911,0.9,2.984
					c-5.434,10.118-12.301,19.157-20.412,26.866C540.224,1740.18,526.057,1749.271,521.127,1749.272z"/>
				<path style="fill:#9E9569;" d="M608.949,1778.838c-0.183,0.001-0.368-0.023-0.553-0.07c-17.851-4.604-35.057-5.795-51.143-3.535
					c-3.852,0.541-7.513,1.256-10.743,1.885c-8.363,1.63-12.555,2.447-13.872-0.656c-2.834-6.693,21.378-17.542,21.624-17.648
					c9.962-4.26,20.804-6.297,32.313-6.006c1.216,0.029,2.178,1.038,2.15,2.255c-0.03,1.216-0.938,2.195-2.258,2.15
					c-10.855-0.252-21.096,1.643-30.471,5.653c-8.513,3.641-15.673,8.63-18.241,11.259c1.982-0.178,5.186-0.802,7.911-1.333
					c3.284-0.64,7.005-1.367,10.973-1.924c16.657-2.339,34.441-1.118,52.858,3.631c1.177,0.304,1.887,1.505,1.584,2.684
					C610.823,1778.178,609.93,1778.838,608.949,1778.838z"/>
				<path style="fill:#8B865C;" d="M629.12,1717.239c-0.226,0-0.454-0.036-0.68-0.109c-1.158-0.375-1.793-1.619-1.416-2.777
					c1.011-3.113,1.573-6.366,1.672-9.667c0.568-19.051-14.468-35.014-33.52-35.582c-7.945-0.234-15.761,2.288-22.045,7.106
					c-0.966,0.742-2.348,0.557-3.09-0.408c-0.74-0.965-0.557-2.349,0.409-3.089c7.087-5.434,15.869-8.287,24.86-8.014
					c21.479,0.641,38.433,18.638,37.794,40.118c-0.112,3.72-0.747,7.386-1.887,10.898
					C630.913,1716.646,630.05,1717.239,629.12,1717.239z"/>
				<g>
					<path style="fill:#8B865C;" d="M665.397,1701.923c-0.592,0-1.181-0.238-1.616-0.706c-7.1-7.663-17.13-11.678-27.557-11.021
						c-2.43,0.154-4.84,0.562-7.16,1.21c-1.16,0.328-2.389-0.353-2.716-1.528c-0.329-1.172,0.355-2.389,1.528-2.716
						c2.617-0.733,5.333-1.192,8.068-1.365c11.746-0.73,23.066,3.784,31.069,12.424c0.828,0.893,0.775,2.288-0.118,3.114
						C666.471,1701.728,665.933,1701.923,665.397,1701.923z"/>
				</g>
				<path style="fill:#8B865C;" d="M648.51,1664.571c-0.078,0-0.157-0.004-0.237-0.013c-1.21-0.129-2.085-1.215-1.956-2.425
					c1.422-13.311-6.798-25.995-19.545-30.16c-11.987-3.919-25.338,0.609-32.451,11.009c-0.684,1.004-2.057,1.263-3.062,0.575
					c-1.005-0.687-1.261-2.058-0.575-3.062c8.212-12.005,23.612-17.229,37.456-12.711c14.713,4.808,24.2,19.45,22.558,34.819
					C650.578,1663.732,649.623,1664.571,648.51,1664.571z"/>
				<path style="fill:#8B865C;" d="M646.317,1788.752c-1.123,0-2.083-0.855-2.191-1.996c-0.116-1.213,0.775-2.288,1.986-2.402
					c2.544-0.24,5.053-0.846,7.457-1.801c13.846-5.508,20.629-21.255,15.122-35.102c-2.292-5.765-6.534-10.6-11.942-13.615
					c-1.063-0.593-1.446-1.935-0.852-2.998c0.592-1.064,1.939-1.444,2.996-0.852c6.295,3.507,11.229,9.131,13.896,15.836
					c6.405,16.106-1.487,34.421-17.593,40.826c-2.793,1.11-5.709,1.814-8.67,2.094
					C646.457,1788.749,646.386,1788.752,646.317,1788.752z"/>
				<g>
					<path style="fill:#8B865C;" d="M573.012,1623.098c-1.1,0-2.049-0.819-2.184-1.937c-0.917-7.505-5.016-13.906-11.249-17.564
						c-1.453-0.851-2.996-1.539-4.586-2.043c-1.16-0.367-1.803-1.606-1.435-2.766c0.366-1.158,1.599-1.807,2.765-1.434
						c1.904,0.603,3.749,1.425,5.485,2.443c7.429,4.358,12.31,11.951,13.392,20.832c0.148,1.208-0.712,2.307-1.92,2.454
						C573.191,1623.093,573.101,1623.098,573.012,1623.098z"/>
				</g>
			</g>
			<g>
				<path style="fill:#9E9569;" d="M508.285,1384.163c-1.708-4.233-8.301-5.909-12.41-6.002c-8.271-0.186-13.463,5.886-14.169,6.739
					c-1.811-1.465-6.481-4.83-13.171-5.221c-8.115-0.475-17.913,3.504-19.527,9.507c-2.432,9.045,13.039,25.214,29.232,25.046
					C496.72,1414.041,511.698,1392.621,508.285,1384.163z"/>
				<path style="fill:#D87355;" d="M481.563,1403.505c-2.975-3.607-29.292-29.776-70.76-18.438
					c-41.797,11.428-58.957,72.129-38.296,113.085c14.942,29.62,49.492,34.854,65.487,37.279
					c47.572,7.208,130.083,3.328,148.291-51.723c11.904-35.992,6.167-101.289-41.906-109.27
					C523.564,1370.983,500.301,1378.17,481.563,1403.505z"/>
				<path style="fill:#E2A18D;" d="M458.195,1413.727c-4.948-10.822-24.681-14.053-38.671-10.278
					c-22.884,6.174-34.095,32.091-35.544,51.337c-1.672,22.217,9.057,43.648,26.172,55.915c24.777,17.759,55.452,13.36,59.385,3.068
					c4.259-11.145-24.505-19.153-26.06-47.439C442.167,1442.504,464.588,1427.712,458.195,1413.727z"/>
				<path style="fill:#E2A18D;" d="M494.462,1417.101c2.161-14.13,26.775-26.912,45.178-22.177
					c27.412,7.052,43.855,53.69,28.871,85.165c-14.579,30.625-53.791,47.802-63.518,33.98
					c-10.211-14.508,18.897-27.995,14.688-54.914C516.095,1436.226,492.267,1431.452,494.462,1417.101z"/>
				<g>
					<path style="fill:#FFFFFF;" d="M438.502,1424.87c2.522,3.251,3.112,7.014,1.318,8.405c-1.794,1.391-5.292-0.116-7.813-3.367
						c-2.522-3.251-3.112-7.014-1.318-8.405S435.981,1421.619,438.502,1424.87z"/>
					<path style="fill:#FFFFFF;" d="M413.872,1442.971c-3.893-1.33-6.454-4.15-5.72-6.298c0.734-2.148,4.485-2.811,8.378-1.481
						s6.454,4.15,5.72,6.298C421.516,1443.639,417.765,1444.302,413.872,1442.971z"/>
					<path style="fill:#FFFFFF;" d="M425.723,1451.687c4.103-0.3,7.564,1.291,7.73,3.555c0.166,2.264-3.026,4.343-7.13,4.643
						c-4.103,0.3-7.564-1.292-7.73-3.555S421.62,1451.987,425.723,1451.687z"/>
					<path style="fill:#FFFFFF;" d="M410.86,1476.27c4.026-0.847,7.669,0.267,8.136,2.488c0.468,2.221-2.417,4.709-6.443,5.556
						c-4.026,0.847-7.669-0.267-8.136-2.488C403.949,1479.605,406.834,1477.117,410.86,1476.27z"/>
					<path style="fill:#FFFFFF;" d="M433.418,1492.558c2.924-2.894,6.589-3.932,8.186-2.319c1.597,1.613,0.521,5.267-2.403,8.161
						c-2.924,2.894-6.589,3.932-8.186,2.319C429.418,1499.106,430.494,1495.452,433.418,1492.558z"/>
					<path style="fill:#FFFFFF;" d="M526.675,1493.193c-2.522-3.251-3.112-7.014-1.318-8.405c1.794-1.391,5.292,0.116,7.813,3.367
						c2.521,3.251,3.112,7.014,1.318,8.405C532.695,1497.951,529.196,1496.444,526.675,1493.193z"/>
					<path style="fill:#FFFFFF;" d="M551.305,1475.091c3.893,1.33,6.454,4.15,5.72,6.298c-0.734,2.148-4.485,2.811-8.378,1.48
						c-3.893-1.33-6.454-4.15-5.72-6.298C543.661,1474.424,547.412,1473.761,551.305,1475.091z"/>
					<path style="fill:#FFFFFF;" d="M539.454,1466.376c-4.103,0.3-7.564-1.291-7.73-3.555c-0.166-2.264,3.026-4.343,7.129-4.643
						s7.564,1.291,7.73,3.555C546.749,1463.997,543.557,1466.075,539.454,1466.376z"/>
					<path style="fill:#FFFFFF;" d="M554.317,1441.793c-4.026,0.847-7.669-0.267-8.136-2.488s2.417-4.709,6.443-5.556
						s7.669,0.267,8.136,2.488C561.228,1438.458,558.343,1440.946,554.317,1441.793z"/>
					<path style="fill:#FFFFFF;" d="M531.759,1425.505c-2.924,2.894-6.589,3.933-8.186,2.319c-1.597-1.613-0.521-5.267,2.403-8.161
						c2.924-2.894,6.589-3.932,8.186-2.319S534.683,1422.611,531.759,1425.505z"/>
				</g>
			</g>
		</g>
		<g>
			<g>
				<path style="fill:#FFFFFF;" d="M1618.915,632.19c-18.041,34.175-61.793,49.949-95.969,31.908
					c-34.176-18.041-45.833-63.065-27.792-97.241c23.631-44.765,76.016-76.891,110.191-58.85
					C1639.522,526.049,1641.851,588.743,1618.915,632.19z"/>
				<path style="fill:#363E44;" d="M1555.821,670.406c-10.924,0-21.845-2.496-31.869-7.788
					c-34.598-18.265-47.747-64.16-28.713-100.218c11.793-22.337,30.75-41.972,52.015-53.872
					c22.646-12.67,44.364-14.763,61.154-5.898c35.948,18.975,37.308,83.937,14.492,127.16l0,0
					C1609.379,655.401,1582.599,670.406,1555.821,670.406z M1585.693,501.636c-11.18,0-23.541,3.607-36.288,10.739
					c-20.541,11.495-38.864,30.478-50.267,52.082c-17.92,33.946-5.615,77.114,26.87,94.264
					c32.491,17.149,75.074,2.956,92.992-30.988c21.865-41.42,21.103-103.388-12.65-121.205
					C1600.157,503.259,1593.191,501.636,1585.693,501.636z M1620.95,628.761h0.022H1620.95z"/>
				
					<ellipse transform="matrix(0.7071 -0.7071 0.7071 0.7071 23.4348 1283.7875)" style="fill:#EFBC73;" cx="1561.386" cy="613.605" rx="40.032" ry="40.032"/>
			</g>
			<g>
				<path style="fill:#D87355;" d="M1898.239,1020.53c-55.175,37.666-67.042,116.334-29.376,171.509
					c49.31,72.231,143.497,143.347,205.401,143.069c8.927-0.04,13.041-11.09,6.356-17.007
					c-24.763-21.916-58.778-62.224-83.138-97.907c-24.195-35.443-32.21-70.307-18.927-79.374
					c13.283-9.068,42.833,11.095,67.029,46.537c21.865,32.029,49.205,82.369,61.042,115.029c2.994,8.262,14.57,8.736,18.041,0.662
					c25.005-58.164-12.261-183.339-56-247.409C2031.001,1000.465,1953.413,982.864,1898.239,1020.53z"/>
				<path style="fill:#FFFFFF;" d="M2087.569,1335.896c-64.936,0-159.298-74.374-206.849-144.03
					c-38.902-56.986-25.185-136.93,29.954-174.571l0,0c55.137-37.643,134.588-21.299,173.491,35.686
					c22.146,32.441,42.369,79.777,54.096,126.627c13.039,52.085,13.786,95.729,2.109,122.895c-1.956,4.543-6.323,7.253-11.197,7.13
					c-4.956-0.145-9.252-3.25-10.941-7.911c-11.044-30.472-37.747-80.783-60.791-114.538c-11.5-16.849-24.656-30.838-37.039-39.39
					c-11.546-7.974-21.359-10.369-26.926-6.571c-12.258,8.368-3.508,42.602,19.506,76.312
					c24.609,36.052,58.649,76.145,82.778,97.499c3.744,3.316,5.027,8.482,3.267,13.161c-1.78,4.727-6.024,7.677-11.074,7.7
					C2087.825,1335.895,2087.696,1335.896,2087.569,1335.896z M1913.158,1020.934c-53.164,36.295-66.351,113.434-28.796,168.446
					c46.914,68.725,139.663,142.106,203.199,142.109c0.125,0,0.247,0,0.37-0.001c3.801-0.017,6.092-2.514,6.97-4.845
					c0.885-2.35,0.807-5.766-2.064-8.308c-24.369-21.568-58.705-61.996-83.497-98.314c-25.209-36.929-33.098-72.369-18.348-82.437
					c7.259-4.958,18.596-2.616,31.915,6.584c12.818,8.851,26.375,23.246,38.175,40.53c23.218,34.013,50.143,84.756,61.294,115.521
					c1.298,3.581,4.427,4.935,6.925,5.008c2.488,0.085,5.559-1.066,7.018-4.466c23.901-55.596-10.98-179.651-55.796-245.295
					C2042.97,1000.453,1966.326,984.639,1913.158,1020.934L1913.158,1020.934z"/>
				<path style="fill:#FFFFFF;" d="M2049.186,1333.472c-1.091,0-2.038-0.807-2.182-1.916c-2.514-19.117-2.077-34.302,1.296-45.137
					c0.364-1.162,1.605-1.816,2.759-1.448c1.162,0.362,1.812,1.597,1.45,2.759c-3.183,10.22-3.564,24.772-1.136,43.252
					c0.159,1.207-0.691,2.313-1.898,2.473C2049.377,1333.465,2049.28,1333.472,2049.186,1333.472z"/>
				<path style="fill:#FFFFFF;" d="M2130.162,1289.626c-0.387,0-0.781-0.102-1.136-0.318c-13.982-8.445-26.315-14.288-36.656-17.37
					c-1.164-0.348-1.829-1.575-1.481-2.742c0.346-1.164,1.56-1.832,2.742-1.483c10.696,3.189,23.371,9.185,37.671,17.822
					c1.042,0.629,1.377,1.984,0.749,3.026C2131.636,1289.248,2130.909,1289.626,2130.162,1289.626z"/>
				<path style="fill:#FFFFFF;" d="M1858.096,1069.931c-0.947,0-1.821-0.614-2.109-1.567c-0.353-1.164,0.306-2.395,1.47-2.747
					c20.182-6.108,39.087-15.273,56.19-27.24c15.863-11.099,30.016-24.498,42.072-39.82c0.749-0.956,2.133-1.124,3.095-0.37
					c0.958,0.753,1.121,2.138,0.37,3.095c-12.323,15.664-26.795,29.359-43.011,40.707c-17.485,12.235-36.811,21.605-57.438,27.847
					C1858.522,1069.899,1858.307,1069.931,1858.096,1069.931z"/>
				<path style="fill:#FFFFFF;" d="M1847.869,1140.382c-0.486,0-0.977-0.16-1.386-0.492c-0.945-0.766-1.091-2.154-0.325-3.1
					c20.759-25.611,45.335-48.367,73.047-67.634c42.905-29.833,84.175-44.588,111.239-51.713c1.179-0.307,2.382,0.393,2.692,1.571
					c0.31,1.176-0.392,2.382-1.569,2.692c-26.722,7.034-67.471,21.604-109.844,51.068c-27.372,19.031-51.642,41.503-72.138,66.793
					C1849.147,1140.103,1848.513,1140.382,1847.869,1140.382z"/>
				<path style="fill:#FFFFFF;" d="M1876.971,1206.308c-0.131,0-0.263-0.012-0.396-0.036c-1.199-0.218-1.993-1.365-1.773-2.563
					c8.946-49.141,30.195-87.013,61.453-109.525c46.295-33.34,105.219-27.706,146.5-17.111c1.177,0.303,1.887,1.504,1.586,2.682
					c-0.303,1.182-1.507,1.89-2.684,1.587c-40.368-10.366-97.916-15.925-142.828,16.418
					c-30.314,21.831-50.954,58.741-59.693,106.738C1878.942,1205.564,1878.015,1206.308,1876.971,1206.308z"/>
				<path style="fill:#FFFFFF;" d="M1909.551,1243.817c-0.153,0-0.308-0.015-0.463-0.048c-1.19-0.255-1.95-1.427-1.694-2.617
					c9.813-45.83,29.956-79.991,59.874-101.537c43.484-31.314,98.159-27.904,136.37-19.522c1.19,0.26,1.941,1.435,1.681,2.624
					c-0.26,1.189-1.446,1.939-2.623,1.68c-37.336-8.187-90.691-11.57-132.854,18.795c-29.001,20.887-48.561,54.156-58.139,98.884
					C1911.481,1243.109,1910.569,1243.817,1909.551,1243.817z"/>
				<path style="fill:#FFFFFF;" d="M1959.089,1286.932c-1.173,0-2.148-0.925-2.199-2.109c-1.887-44.048,5.068-76.989,20.675-97.91
					c0.727-0.976,2.109-1.175,3.084-0.449c0.977,0.728,1.177,2.109,0.45,3.085c-14.985,20.086-21.647,52.077-19.805,95.084
					c0.052,1.216-0.891,2.245-2.107,2.296C1959.153,1286.931,1959.121,1286.932,1959.089,1286.932z"/>
				<path style="fill:#FFFFFF;" d="M2123.515,1189.514c-0.323,0-0.65-0.071-0.962-0.222c-38.663-18.794-71.088-27.006-96.377-24.411
					c-1.248,0.123-2.296-0.756-2.419-1.967c-0.123-1.21,0.757-2.293,1.967-2.417c26.134-2.675,59.342,5.673,98.757,24.83
					c1.093,0.533,1.55,1.851,1.018,2.945C2125.118,1189.057,2124.333,1189.514,2123.515,1189.514z"/>
				<path style="fill:#FFFFFF;" d="M2005.476,1314.979c-1.098,0-2.047-0.818-2.184-1.934c-4.093-33.19-2.369-58.723,5.126-75.889
					c0.486-1.114,1.775-1.624,2.901-1.138c1.115,0.487,1.625,1.786,1.136,2.901c-7.173,16.434-8.785,41.192-4.79,73.587
					c0.151,1.208-0.708,2.308-1.917,2.458C2005.656,1314.973,2005.564,1314.979,2005.476,1314.979z"/>
				<path style="fill:#FFFFFF;" d="M2132.357,1244.052c-0.381,0-0.766-0.098-1.117-0.306
					c-27.811-16.386-51.423-26.042-70.184-28.699c-1.205-0.171-2.042-1.286-1.872-2.491c0.172-1.206,1.278-2.043,2.492-1.873
					c19.334,2.74,43.493,12.587,71.803,29.268c1.048,0.618,1.397,1.968,0.779,3.017
					C2133.847,1243.664,2133.113,1244.052,2132.357,1244.052z"/>
				<path style="fill:#F7F1EB;" d="M1947.922,1074.421c21.483,31.47,35.44,59.343,31.173,62.255
					c-4.267,2.913-25.142-20.237-46.625-51.707c-21.483-31.47-35.44-59.343-31.173-62.255
					C1905.564,1019.801,1926.438,1042.951,1947.922,1074.421z"/>
				
					<ellipse transform="matrix(0.1881 -0.9822 0.9822 0.1881 514.9855 2780.676)" style="fill:#FFFFFF;" cx="1939.291" cy="1078.866" rx="23.595" ry="23.595"/>
			</g>
			<g>
				<path style="fill:#B77250;" d="M1817.886,870.132c-91.422,28.203-205.773-44.907-212.502-65.169
					c-10.484-31.573,62.822-52.579,83.824-79.794c22.375-28.995,46.622-54.375,92.397-68.497
					c51.438-15.868,84.997-15.489,122.223-2.602c28.937,10.017,48.545,36.27,56.003,60.444c8.383,27.175,2.064,67.298-21.449,94.302
					C1914.069,836.74,1864.362,855.795,1817.886,870.132z"/>
				<path style="fill:#84524D;" d="M1923.087,802.853c-0.652,0-1.296-0.287-1.732-0.838l-110.07-139.34
					c-0.753-0.954-0.592-2.34,0.364-3.095c0.958-0.754,2.339-0.591,3.097,0.364l110.07,139.34c0.753,0.954,0.592,2.34-0.364,3.095
					C1924.047,802.698,1923.565,802.853,1923.087,802.853z"/>
				<path style="fill:#84524D;" d="M1882.396,834.661c-0.618,0-1.231-0.258-1.668-0.763l-127.803-147.942
					c-0.796-0.921-0.693-2.312,0.228-3.109c0.917-0.792,2.309-0.696,3.108,0.227l127.803,147.942
					c0.796,0.921,0.693,2.312-0.228,3.109C1883.421,834.485,1882.909,834.661,1882.396,834.661z"/>
				<path style="fill:#84524D;" d="M1775.795,872.731c-0.575,0-1.147-0.223-1.58-0.666l-107.025-109.916
					c-0.848-0.873-0.831-2.267,0.043-3.116c0.87-0.85,2.264-0.832,3.116,0.041l107.025,109.916c0.848,0.873,0.831,2.267-0.043,3.116
					C1776.904,872.523,1776.351,872.731,1775.795,872.731z"/>
				<path style="fill:#84524D;" d="M1775.793,872.731c-0.321,0-0.646-0.07-0.956-0.219c-1.095-0.528-1.556-1.846-1.026-2.942
					l100.666-208.795c0.323-0.671,0.964-1.133,1.702-1.229c0.751-0.091,1.474,0.189,1.958,0.755l72.026,84.424
					c0.79,0.925,0.68,2.317-0.245,3.107c-0.925,0.788-2.313,0.682-3.108-0.246l-69.834-81.853l-99.198,205.75
					C1777.401,872.273,1776.613,872.731,1775.793,872.731z"/>
				<path style="fill:#84524D;" d="M1726.632,857.533c-0.336,0-0.676-0.076-0.996-0.24c-1.085-0.551-1.517-1.878-0.966-2.962
					l93.368-183.586c0.551-1.086,1.872-1.521,2.963-0.965c1.085,0.551,1.517,1.878,0.966,2.962l-93.368,183.586
					C1728.21,857.093,1727.435,857.533,1726.632,857.533z"/>
				<path style="fill:#84524D;" d="M1676.302,843.436c-0.331,0-0.667-0.074-0.984-0.232c-1.089-0.543-1.53-1.867-0.986-2.956
					l78.289-156.716c0.542-1.089,1.868-1.531,2.957-0.987c1.089,0.543,1.53,1.867,0.986,2.956l-78.289,156.717
					C1677.891,842.99,1677.112,843.436,1676.302,843.436z"/>
				<path style="fill:#84524D;" d="M1836.364,854.046c-0.609,0-1.194-0.252-1.614-0.703l-125.214-134.669
					c-0.828-0.892-0.777-2.286,0.114-3.115c0.889-0.827,2.281-0.778,3.114,0.113l123.09,132.386l74.844-143.336
					c0.566-1.08,1.9-1.495,2.974-0.933c1.078,0.563,1.496,1.894,0.934,2.973l-76.287,146.101c-0.331,0.634-0.951,1.069-1.659,1.164
					C1836.56,854.039,1836.461,854.046,1836.364,854.046z"/>
			</g>
			<g>
				<path style="fill:#A8A073;" d="M1348.611,473.209c-18.116-20.932-10.155-57.501-10.155-57.501s37.334-2.633,55.45,18.298
					c18.116,20.932,10.155,57.502,10.155,57.502S1366.727,494.141,1348.611,473.209z"/>
				<path style="fill:#363E44;" d="M1413.348,498.466c-0.344,0-0.695-0.081-1.022-0.253c-10.36-5.443-20.128-12.017-29.031-19.538
					c-14.614-12.346-26.853-27.123-36.376-43.919c-0.6-1.059-0.228-2.404,0.831-3.004c1.057-0.598,2.404-0.227,3.004,0.831
					c9.265,16.341,21.17,30.717,35.386,42.727c8.658,7.315,18.159,13.708,28.235,19.002c1.078,0.566,1.494,1.898,0.928,2.976
					C1414.906,498.038,1414.14,498.466,1413.348,498.466z"/>
			</g>
		</g>
	</g>
</g>
</svg>
